<svg width="14" height="20" viewBox="0 0 14 20" fill="none" xmlns="http://www.w3.org/2000/svg">
<path fill-rule="evenodd" clip-rule="evenodd" d="M8.66683 2.50004V2.74161C11.0764 3.45873 12.8335 5.69086 12.8335 8.33337V14.1667H13.6668V15.8334H0.333496V14.1667H1.16683V8.33337C1.16683 5.69086 2.92392 3.45873 5.3335 2.74161V2.50004C5.3335 1.57957 6.07969 0.833374 7.00016 0.833374C7.92064 0.833374 8.66683 1.57957 8.66683 2.50004ZM2.8335 14.1667H11.1668V8.33337C11.1668 6.03219 9.30135 4.16671 7.00016 4.16671C4.69898 4.16671 2.8335 6.03219 2.8335 8.33337V14.1667ZM8.66683 17.5V16.6667H5.3335V17.5C5.3335 18.4205 6.07969 19.1667 7.00016 19.1667C7.92064 19.1667 8.66683 18.4205 8.66683 17.5Z" fill="black"/>
</svg>
