<svg width="24" height="14" viewBox="0 0 24 14" fill="none" xmlns="http://www.w3.org/2000/svg">
<path d="M20.4602 11.3277L22.5131 11.3274V8.06459L19.0674 5.02675H15.6217V11.3274M20.4602 11.3277C20.2576 10.8687 19.7105 10.5399 19.0674 10.5399M20.4602 11.3277C20.5146 11.4508 20.5441 11.5832 20.5441 11.7212M19.0674 10.5399C18.4243 10.5399 17.8773 10.8687 17.6746 11.3277M19.0674 10.5399C19.883 10.5399 20.5441 11.0688 20.5441 11.7212M19.0674 10.5399C18.2519 10.5399 17.5907 11.0688 17.5907 11.7212M17.6746 11.3277L15.6217 11.3274M17.6746 11.3277C17.6203 11.4508 17.5907 11.5832 17.5907 11.7212M15.6217 11.3274V1.8764H1.83896M15.6217 11.3274L8.64642 11.3277M8.64642 11.3277C8.44378 10.8687 7.8967 10.5399 7.25362 10.5399M8.64642 11.3277C8.70077 11.4508 8.73034 11.5832 8.73034 11.7212M7.25362 10.5399C6.61054 10.5399 6.06346 10.8687 5.86082 11.3277M7.25362 10.5399C8.06919 10.5399 8.73034 11.0688 8.73034 11.7212M7.25362 10.5399C6.43805 10.5399 5.77689 11.0688 5.77689 11.7212M5.86082 11.3277L4.79241 11.3274M5.86082 11.3277C5.80647 11.4508 5.77689 11.5832 5.77689 11.7212M20.5441 11.7212C20.5441 12.3737 19.883 12.9026 19.0674 12.9026C18.2519 12.9026 17.5907 12.3737 17.5907 11.7212M8.73034 11.7212C8.73034 12.3737 8.06919 12.9026 7.25362 12.9026C6.43805 12.9026 5.77689 12.3737 5.77689 11.7212M5.28465 6.60193H3.80793M5.28465 8.96469H4.79241M5.28465 4.23916H2.82344" stroke="black" stroke-width="2" stroke-linecap="round" stroke-linejoin="round"/>
</svg>
