<svg width="44" height="18" viewBox="0 0 44 18" fill="none" xmlns="http://www.w3.org/2000/svg">
<path d="M4.768 13.112C4.032 13.112 3.37067 12.984 2.784 12.728C2.208 12.4613 1.75467 12.0987 1.424 11.64C1.09333 11.1707 0.922667 10.632 0.912 10.024H2.464C2.51733 10.5467 2.73067 10.9893 3.104 11.352C3.488 11.704 4.04267 11.88 4.768 11.88C5.46133 11.88 6.00533 11.7093 6.4 11.368C6.80533 11.016 7.008 10.568 7.008 10.024C7.008 9.59733 6.89067 9.25067 6.656 8.984C6.42133 8.71733 6.128 8.51467 5.776 8.376C5.424 8.23733 4.94933 8.088 4.352 7.928C3.616 7.736 3.024 7.544 2.576 7.352C2.13867 7.16 1.76 6.86133 1.44 6.456C1.13067 6.04 0.976 5.48533 0.976 4.792C0.976 4.184 1.13067 3.64533 1.44 3.176C1.74933 2.70667 2.18133 2.344 2.736 2.088C3.30133 1.832 3.94667 1.704 4.672 1.704C5.71733 1.704 6.57067 1.96533 7.232 2.488C7.904 3.01067 8.28267 3.704 8.368 4.568H6.768C6.71467 4.14133 6.49067 3.768 6.096 3.448C5.70133 3.11733 5.17867 2.952 4.528 2.952C3.92 2.952 3.424 3.112 3.04 3.432C2.656 3.74133 2.464 4.17867 2.464 4.744C2.464 5.14933 2.576 5.48 2.8 5.736C3.03467 5.992 3.31733 6.18933 3.648 6.328C3.98933 6.456 4.464 6.60533 5.072 6.776C5.808 6.97867 6.4 7.18133 6.848 7.384C7.296 7.576 7.68 7.88 8 8.296C8.32 8.70133 8.48 9.256 8.48 9.96C8.48 10.504 8.336 11.016 8.048 11.496C7.76 11.976 7.33333 12.3653 6.768 12.664C6.20267 12.9627 5.536 13.112 4.768 13.112ZM15.5186 13L12.0786 9.128V13H10.6226V1.16H12.0786V8.12L15.4546 4.232H17.4866L13.3586 8.6L17.5026 13H15.5186ZM19.609 2.808C19.3317 2.808 19.097 2.712 18.905 2.52C18.713 2.328 18.617 2.09333 18.617 1.816C18.617 1.53867 18.713 1.304 18.905 1.112C19.097 0.919999 19.3317 0.823999 19.609 0.823999C19.8757 0.823999 20.0997 0.919999 20.281 1.112C20.473 1.304 20.569 1.53867 20.569 1.816C20.569 2.09333 20.473 2.328 20.281 2.52C20.0997 2.712 19.8757 2.808 19.609 2.808ZM20.313 4.232V13H18.857V4.232H20.313ZM24.2505 5.848C24.5385 5.34667 24.9652 4.93067 25.5305 4.6C26.1065 4.25867 26.7732 4.088 27.5305 4.088C28.3092 4.088 29.0132 4.27467 29.6425 4.648C30.2825 5.02133 30.7838 5.54933 31.1465 6.232C31.5092 6.904 31.6905 7.688 31.6905 8.584C31.6905 9.46933 31.5092 10.2587 31.1465 10.952C30.7838 11.6453 30.2825 12.184 29.6425 12.568C29.0132 12.952 28.3092 13.144 27.5305 13.144C26.7838 13.144 26.1225 12.9787 25.5465 12.648C24.9812 12.3067 24.5492 11.8853 24.2505 11.384V17.16H22.7945V4.232H24.2505V5.848ZM30.2025 8.584C30.2025 7.92267 30.0692 7.34667 29.8025 6.856C29.5358 6.36533 29.1732 5.992 28.7145 5.736C28.2665 5.48 27.7705 5.352 27.2265 5.352C26.6932 5.352 26.1972 5.48533 25.7385 5.752C25.2905 6.008 24.9278 6.38667 24.6505 6.888C24.3838 7.37867 24.2505 7.94933 24.2505 8.6C24.2505 9.26133 24.3838 9.84267 24.6505 10.344C24.9278 10.8347 25.2905 11.2133 25.7385 11.48C26.1972 11.736 26.6932 11.864 27.2265 11.864C27.7705 11.864 28.2665 11.736 28.7145 11.48C29.1732 11.2133 29.5358 10.8347 29.8025 10.344C30.0692 9.84267 30.2025 9.256 30.2025 8.584ZM38.1446 3.48H39.9846L43.8566 7.144L39.9846 10.824H38.1446L42.0166 7.144L38.1446 3.48Z" fill="black" fill-opacity="0.5"/>
</svg>
